<svg id="Layer_1" data-name="Layer 1" xmlns="http://www.w3.org/2000/svg" viewBox="0 0 142.42 131.99"><defs><style>.cls-1{fill:#fff;}.cls-2{fill:#1a1a1a;}.cls-3{fill:#fc0;}</style></defs><ellipse class="cls-1" cx="71.21" cy="66" rx="71.21" ry="66"/><path class="cls-2" d="M258.13,140a8.8,8.8,0,0,0,.13,4.72,10.56,10.56,0,0,0,2.42,4.09,15.21,15.21,0,0,0,8.43,4.21,22.44,22.44,0,0,0,13.65-2,11.79,11.79,0,0,0,4.19-3.17,6.65,6.65,0,0,0,1.19-2.34,5.17,5.17,0,0,0,0-2.62,7.78,7.78,0,0,0-2.52-3.67,25.55,25.55,0,0,0-11.3-5.8,17.75,17.75,0,0,0-9.59,0,11.19,11.19,0,0,0-4.16,2.43A9,9,0,0,0,258.13,140Z" transform="translate(-229.77 -87.52)"/><path class="cls-3" d="M259.88,140.09a7.86,7.86,0,0,0,.12,4.3,9.46,9.46,0,0,0,2.2,3.72,13.7,13.7,0,0,0,7.66,3.82,20.35,20.35,0,0,0,12.42-1.82,10.7,10.7,0,0,0,3.81-2.87,6.18,6.18,0,0,0,1.08-2.14,4.68,4.68,0,0,0,0-2.38,7,7,0,0,0-2.29-3.33,23.21,23.21,0,0,0-10.28-5.29,16.27,16.27,0,0,0-8.73,0,10.05,10.05,0,0,0-3.78,2.22A8,8,0,0,0,259.88,140.09Z" transform="translate(-229.77 -87.52)"/><circle class="cls-2" cx="44.38" cy="55.6" r="6.48"/><path class="cls-2" d="M296.45,161.83a51.11,51.11,0,0,0,.82,11.06,48.1,48.1,0,0,0,3.57,11.33,44.53,44.53,0,0,0,3.45-9.53,47.67,47.67,0,0,0,1.19-13.28L301,156.88Z" transform="translate(-229.77 -87.52)"/><path class="cls-2" d="M344.3,140a8.61,8.61,0,0,1-.13,4.72,10.44,10.44,0,0,1-2.42,4.09,15.15,15.15,0,0,1-8.43,4.21,22.4,22.4,0,0,1-13.64-2,11.62,11.62,0,0,1-4.19-3.17,6.65,6.65,0,0,1-1.19-2.34,5.28,5.28,0,0,1-.05-2.62,7.8,7.8,0,0,1,2.53-3.67,25.5,25.5,0,0,1,11.3-5.8,17.71,17.71,0,0,1,9.58,0,11.11,11.11,0,0,1,4.16,2.43A8.86,8.86,0,0,1,344.3,140Z" transform="translate(-229.77 -87.52)"/><path class="cls-3" d="M342.56,140.09a8,8,0,0,1-.12,4.3,9.58,9.58,0,0,1-2.2,3.72,13.76,13.76,0,0,1-7.67,3.82,20.3,20.3,0,0,1-12.41-1.82,10.61,10.61,0,0,1-3.81-2.87,6.2,6.2,0,0,1-1.09-2.14,4.8,4.8,0,0,1,0-2.38,7.11,7.11,0,0,1,2.3-3.33,23.11,23.11,0,0,1,10.28-5.29,16.24,16.24,0,0,1,8.72,0,10,10,0,0,1,3.78,2.22A8,8,0,0,1,342.56,140.09Z" transform="translate(-229.77 -87.52)"/><circle class="cls-2" cx="98.51" cy="55.6" r="6.48"/><circle class="cls-1" cx="40.29" cy="51.52" r="2.11"/><circle class="cls-1" cx="331.21" cy="137.98" r="2.11" transform="translate(-255.48 87.16) rotate(-28.49)"/></svg>