<?xml version="1.0" encoding="UTF-8" standalone="no"?>
<!-- Generator: Adobe Illustrator 24.2.3, SVG Export Plug-In . SVG Version: 6.00 Build 0)  -->

<svg
   version="1.1"
   id="Layer_1"
   x="0px"
   y="0px"
   viewBox="0 0 685.13184 384.53806"
   xml:space="preserve"
   sodipodi:docname="award_winner.svg"
   width="685.13184"
   height="384.53806"
   inkscape:version="1.2.2 (b0a84865, 2022-12-01)"
   xmlns:inkscape="http://www.inkscape.org/namespaces/inkscape"
   xmlns:sodipodi="http://sodipodi.sourceforge.net/DTD/sodipodi-0.dtd"
   xmlns="http://www.w3.org/2000/svg"
   xmlns:svg="http://www.w3.org/2000/svg"><defs
   id="defs139" /><sodipodi:namedview
   id="namedview137"
   pagecolor="#ffffff"
   bordercolor="#000000"
   borderopacity="0.25"
   inkscape:showpageshadow="2"
   inkscape:pageopacity="0.0"
   inkscape:pagecheckerboard="0"
   inkscape:deskcolor="#d1d1d1"
   showgrid="false"
   inkscape:zoom="0.91215227"
   inkscape:cx="409.47111"
   inkscape:cy="222.00241"
   inkscape:window-width="1390"
   inkscape:window-height="1205"
   inkscape:window-x="0"
   inkscape:window-y="25"
   inkscape:window-maximized="0"
   inkscape:current-layer="Layer_1" />
<style
   type="text/css"
   id="style2">
	.st0{fill:#E7AF15;}
	.st1{fill:#E4AD15;}
	.st2{fill:#E3AC15;}
	.st3{fill:#CD9D19;}
	.st4{fill:#FDD157;}
	.st5{fill:#020101;}
	.st6{font-family:'Tahoma-Bold';}
	.st7{font-size:46px;}
	.st8{font-size:68px;}
</style>
<path
   class="st0"
   d="m 62.140001,106.18357 c 7.6,-3.8 15.5,-5.9 24.1,-4.7 7,1 8,2.9 5.2,9.1 -5.1,11.2 -22.5,25.4 -38.2,18.4 -2.2,-1 -3,0 -3.6,1.9 -1.5,4.6 -3,9.2 -4.6,13.7 -0.2,0.6 -0.6,1.3 0.1,1.8 1,0.6 1.9,0.2 2.7,-0.5 3.7,-3.1 7.8,-5.7 12.3,-7.6 4.5,-1.9 9.2,-2.9 14.1,-2.7 2.9,0.1 4.3,1.2 4.2,4.2 -0.4,13.5 -15.1,35.2 -33.7,32.8 -3.1,-0.4 -4.4,0.3 -4.5,3.7 -0.2,6.1 -0.5,12.3 0.4,19.7 3,-5.5 6.1,-9.4 9.8,-12.8 5.1,-4.7 10.9,-8.1 17.8,-9.5 3.6,-0.7 5,0.6 5.6,4.2 2.1,13.7 -8,38 -27.3,39.5 -2,0.2 -3,0.6 -2.3,3 1.9,6.9 3.7,13.8 7,21.1 2.1,-7.3 4.3,-13.7 8.5,-19.3 2.5,-3.4 5.4,-6.3 9,-8.5 2.1,-1.3 3.5,-1.1 5,0.9 8.1,10.3 10.2,39 -7.1,49.3 -3.2,1.9 -3.1,3.4 -1.1,6.1 3.2,4.4 6.1,9 9.6,13.3 0.2,-6.4 0.6,-12.7 2.5,-18.7 1.7,-5.3 4.1,-10.2 8.1,-14.2 1.6,-1.6 3,-2.1 5.1,-0.6 10.699999,8.1 20.199999,36.6 4.9,51.2 -3,2.8 -2.4,4.2 0.3,6.4 4.299999,3.6 8.399999,7.5 13.699999,12.3 -2.2,-8.6 -3,-15.8 -2.1,-23.2 0.7,-5.4 2.2,-10.4 5.1,-15 1.5,-2.4 3,-2.9 5.7,-1.5 17.4,8.9 25.6,36.1 15.6,52.8 -1.6,2.7 -0.8,3.6 1.4,4.8 7,3.9 13.9,7.9 20.9,11.9 1.2,-2.1 -0.5,-3.3 -1.1,-4.7 -5,-12.3 -6.3,-24.7 -1.5,-37.5 1.6,-4.4 3.8,-5.3 8.2,-3.2 18.7,9.1 28.6,34.5 20.3,53.5 -1.1,2.5 -0.4,3.1 1.7,3.8 9,3 17.9,6.4 27,9.1 3.8,1.1 5.6,2.9 5.7,6.7 0.1,2.3 0.7,4.6 1.1,7.2 -2.5,0.6 -4.6,-0.7 -6.7,-1.3 -12.6,-3.9 -24.9,-8.5 -36.9,-13.8 -1.6,-0.7 -2.9,-1.8 -4.7,0.2 -13.9,14.8 -29.9,18.3 -48.8,11.1 -3.4,-1.3 -6.6,-3.1 -9.5,-5.4 -2.4,-1.8 -2.5,-3.5 -0.8,-5.8 6,-8.2 14.4,-12.7 23.7,-15.7 1.7,-0.6 3.5,-0.9 6.3,-1.6 -6.2,-4.1 -11.9,-7.9 -17.6,-11.6 -1.4,-0.9 -2,0.6 -2.8,1.4 -15.4,14.3 -41.799999,14.2 -57.199999,-0.4 -4.3,-4 -4.3,-5 0,-9 6.8,-6.3 15.2,-9.4 24.2,-10.8 3.1,-0.5 6.3,-0.6 9.7,-1 -4.5,-4.6 -8.8,-9 -13.1,-13.4 -1.4,-1.4 -2.4,0 -3.4,0.7 -16.4,10.1 -42.3,3.7 -52.4,-12.9 -1.8,-2.9 -1.4,-4.6 1.4,-6.5 9.4,-6 19.6,-6.8 30.3,-5.5 1.1,0.1 2.3,0.3 3.4,0.4 0.1,0 0.3,-0.1 0.6,-0.2 -3.2,-5.3 -6.5,-10.4 -9.5,-15.8 -1.1,-1.9 -2.3,-1.3 -3.7,-0.7 -19.2,8.5 -42.1000002,-10.2 -46.8000002,-24.1 -1.3,-3.8 -0.1,-5.5 3.4,-6.6 9.9000002,-3 19.4000002,-1.6 28.8000002,2 1.7,0.6 3.2,1.4 5.6,2.4 -2.5,-8.8 -5.1,-17.1 -6.4,-25.6 -0.3,-1.8 -1.7,-1.6 -3,-1.8 -18.3,-2.6 -32.7000002,-20.2 -31.8000002,-38.6 0.2,-4.3 1.9,-5.8 6.2,-5.2 10.4000002,1.4 18.4000002,7.1 26.3000002,14.9 0.6,-5.6 1.1,-10.6 1.5,-15.6 0.2,-2 -1.5,-1.8 -2.7,-2.2 -16.6,-5.8 -27.1000002,-27.1 -22.0000002,-43.9 1.1000002,-3.7 3.1000002,-4.7 6.6000002,-3.4 9.4,3.4 15.9,10 21.1,18.3 0.8,1.3 1.5,2.6 2.5,4.4 2.3,-6.2 4.4,-11.9 6.6,-17.5 0.7,-1.7 -0.1,-2.2 -1.3,-3 -14.6,-9.5 -19.8,-27.9 -12.3,-43.8 2.8,-6 4.4,-6.5 9.5,-2.5 7.3,5.6 11.5,13.2 13.9,22 0.3,1.3 0.2,2.7 1.5,4 2.6,-4.1 5.1,-8.1 7.8,-12 1.4,-2 -0.1,-2.6 -1.2,-3.6 -9.9,-9.6 -10.6,-28.2 -1.8,-38.8 2.2,-2.6 3.9,-3 6.5,-0.6 5.1,4.8 7.7,10.7 9.2,17.4 0.4,1.9 0.7,3.9 1.2,6.5 3,-3.4 5.5,-6.5 8.2,-9.3 1.5,-1.6 0.8,-2.6 -0.3,-3.8 -9.1,-10.1 -2.7,-28.3 5.1,-34.8 2.9,-2.4 4.8,-2 6.8,1 3.999999,6.2 4.599999,13.1 4.199999,20.6 3.8,-1.7 6,-4.9 8.9,-7.1 1.4,-1.1 0.2,-2 -0.3,-3 -5.1,-11 -0.7,-24.8999999 9.7,-31.3999999 3.7,-2.3 5.6,-1.3 7,2.5 2.1,5.7999999 1.7,11.6999999 0.6,18.0999999 4,-2.7 7.4,-4.8 9.4,-9.1 4.5,-9.1999999 20.6,-15.5999999 30.8,-12.9999999 2.9,0.7 3.4,2 2.5,4.6 -3.2,9.5999999 -18.1,19.8999999 -28,18.1999999 -5.1,-0.9 -8.6,0.6 -12.1,3.6 -2,1.7 -4.2,3.2 -7.2,5.5 7.3,0 13.1,1.2 18.2,4.9 5.1,3.7 5,5.8 -0.4,8.9 -9.7,5.5 -20.1,3.6 -28,-5.3 -3.7,3.4 -7.4,6.8 -11.2,10.2 4.2,0.3 8,0.7 11.8,1.7 3.6,1 8.6,1.9 8.9,6 0.3,3.7 -4.1,5.7 -7.4,7.3 -8,3.8 -15.9,5.2 -23.299999,-1.2 -1.3,-1.1 -2.1,-1.1 -3.2,0.3 -2.5,3.1 -5.1,6 -8.4,9.9 5.8,-1 10.6,-2 15.3,-1.2 3.399999,0.5 7.899999,0.6 8.999999,4.2 1,3.2 -2.2,6.1 -4.7,8.3 -8.499999,7.5 -17.799999,12 -28.999999,5.9 -1.5,-0.8 -2.4,-0.6 -3.2,0.8 -2.4,4.2 -5.4,8 -7,12.6 -0.2,0.3 -0.3,0.6 -0.5,0.9 0.1,-0.4 0.5,-0.4 0.8,-0.5 z m 27,237.3 c 8.1,-0.1 15.099999,-3 19.399999,-7.3 2.3,-2.4 2.5,-4.2 -0.8,-5.6 -13.799999,-5.5 -27.199999,-5.5 -40.199999,2.2 -2.7,1.6 -2.6,3.1 0.1,4.7 6.8,4.1 14.5,5.4 21.5,6 z m 64.499999,-21.8 c 0.3,11.1 4.2,20.7 10.9,29.1 1.3,1.6 1.8,4.7 4.4,4.1 2.2,-0.5 2.7,-3.2 3.4,-5.2 0.7,-2 1.2,-4.2 1.3,-6.3 0.5,-9.7 -3.1,-17.9 -9.2,-25.2 -2.4,-2.9 -5.2,-7.6 -8.7,-6.3 -2.7,1 -1.8,6.5 -2.1,9.8 z m -8.7,35.6 c -9.9,-0.4 -18.6,3.1 -26.7,8.3 -1.3,0.8 -3.3,1.7 -3.1,3.5 0.2,1.9 2.3,2.1 3.8,2.7 6,2.2 12.2,3 18.6,2.6 7.2,-0.4 13.6,-2.7 18.7,-8 4.6,-4.8 4,-7 -2.5,-8.4 -2.8,-0.6 -5.9,-0.5 -8.8,-0.7 z m -34.4,-57.2 c 0,9.6 2.5,18.9 7,26.5 2.5,4.2 3.1,4.2 5.9,-0.1 6.5,-10 2,-30.9 -8,-37.7 -2,-1.3 -3,-0.9 -3.7,1.2 -1.1,3.7 -1.3,7.3 -1.2,10.1 z m -64.099999,-11.6 c -2.9,-0.2 -6.9,0.2 -10.8,1.2 -1.3,0.3 -2.8,0.7 -3.1,2.1 -0.3,1.5 1.1,2.3 2.1,3.1 5.1,3.9 10.5,7.1 16.9,8.3 8,1.5 15.6,0.6 22,-5.1 1.6,-1.4 3.2,-3.4 -0.2,-4.2 -8.6,-2 -16.8,-5.7 -26.9,-5.4 z m -31.7,-48 c -0.7,0 -1.3,-0.1 -2,0 -1.6,0.2 -3.7000002,-0.7 -4.4000002,1.3 -0.5,1.5 0.9,2.8 1.9000002,3.9 2.7,2.9 5.4,5.9 8.8,8.1 6.7,4.5 13.8,7.4 22,4.9 2.9,-0.9 4.2,-2 1.6,-4.8 -7.6,-8 -16.5,-13.4 -27.9,-13.4 z m 13.1,-36.9 c 0.9,-1 6,1.5 3.6,-2.7 -5.9,-10.3 -13,-19.7 -24.8000002,-24.3 -3.5,-1.3 -3.8,0.1 -3.1,3 1.6,6.6 4.5,12.6 9.3000002,17.4 3.9,3.9 8.5,7 15,6.6 z m 50.8,72.8 c 0,5.5 1.4,10.8 2.4,16.2 0.8,4.2 2.2,4.1 4.9,1.4 7.5,-7.4 7.5,-27 0.1,-34.7 -2,-2.1 -2.8,-0.7 -3.6,0.9 -2.5,5.1 -3.8,10.5 -3.8,16.2 z m -65.6,-150.2 c -2.8,0.6 -2.3,2.7 -2.1,4.4 0.7,6.5 2.4,12.8 6,18.3 2.8,4.3 6.8,7.3 11.9,8.5 1.9,0.4 4.3,0.5 3.3,-2.5 -3.6,-10.4 -7.1,-20.9 -17.1,-27.3 -0.6,-0.5 -1.3,-1 -2,-1.4 z m 54.7,108.4 c 0,-3.2 0,-6.3 -1,-9.4 -0.4,-1.3 -0.3,-3.1 -1.7,-3.4 -1.7,-0.4 -2.5,1.4 -3.4,2.5 -6.6,8.6 -8.1,18.7 -8.1,29.2 0,4 1.5,4.3 4.4,2.3 7.8,-5.1 9.8,-12.7 9.8,-21.2 z m -6.1,-50.6 c 0.1,-3.3 -1.4,-3.2 -3.7,-1.9 -8.3,4.8 -14.3,11.3 -16.3,21 -0.3,1.4 -1.5,3 0.1,4.1 1.3,1 2.9,0.3 4.3,-0.2 7.5,-2.8 15.7,-14.8 15.6,-23 z m -18.1,-20.4 c 9.7,-1.1 15.6,-7.6 20.1,-16 0.8,-1.5 2.6,-3.4 1.3,-5 -1.5,-1.8 -3.8,-0.2 -5.5,0.4 -8.2,3.1 -14.1,9 -19,16.1 -0.7,1 -2.1,2 -1,3.5 0.8,1.3 2.3,0.9 4.1,1 z m -10.9,-74 c 0,3.2 -0.2,4.8 0,6.5 0.7,6.4 3.1,11.9 8.8,15.4 1.6,1 4,1.9 3.7,-1.3 -0.6,-7.2 -0.5,-14.7 -4.5,-21.2 -1.7,-2.7 -3.2,-7.6 -6.2,-6.9 -3.1,0.8 -1.5,5.8 -1.8,7.5 z m 25.4,32.2 c 8.2,-1.1 14.5,-5.4 19.4,-11.9 0.4,-0.6 0.7,-1.7 0.5,-2.3 -0.4,-1.1 -1.7,-0.8 -2.6,-0.7 -8.9,0.7 -16,4.9 -22.3,10.9 -1.5,1.4 -1.8,2.4 0.6,3 1.4,0.4 2.9,0.7 4.4,1 z m 8.5,-54.5 c -0.5,-3.8 -1.3,-7.1 -2.8,-10.3 -0.5,-1 -0.7,-2.5 -2.1,-2.5 -1.5,0 -1.5,1.5 -1.9,2.6 -1.4,4.7 -1.6,9.5 0,14.2 0.6,2 1.2,4.8 3.7,4.6 2.3,-0.2 1.8,-3.1 2.3,-5 0.5,-1.2 0.6,-2.6 0.8,-3.6 z m 24.2,-30.1 c 0,-0.7 0.1,-1.7 0,-2.7 -0.1,-1.1 0.2,-2.7 -1.1,-3 -1.8,-0.5 -2,1.4 -2.5,2.5 -1.6,3.4 -1.8,7.1 -1.4,10.8 0.1,1.2 0.3,2.6 1.5,2.9 1.6,0.4 1.6,-1.4 2,-2.3 1,-2.5 1.7,-5.1 1.5,-8.2 z M 117.04,9.6835701 c -3.5,5.6999999 -6.8,10.0999999 -4.5,16.0999999 0.3,0.7 0.8,1.6 1.4,1.8 0.9,0.3 1.3,-0.8 1.5,-1.6 1,-4.9 3,-9.7 1.6,-16.2999999 z M 89.840001,79.98357 c -5.6,-1.2 -9.9,0.6 -14.2,2.7 -0.8,0.4 -2.1,0.7 -1.7,2 0.4,1.1 1.6,1 2.6,1 4.9,-0.1 9.1,-1.8 13.3,-5.7 z M 155.14,7.2835701 c -7,0.4 -10.8,2.6 -12.7,6.7999999 4.9,-0.7 8.5,-3 12.7,-6.7999999 z M 128.54,39.38357 c -3.7,-2.7 -6.5,-3 -10.3,-2.3 2.9,3 5.8,2.7 10.3,2.3 z m -23.6,18.8 c -2.3,-0.4 -4.6,-1 -7.399999,0.9 2.999999,0.9 5.299999,0.8 7.399999,-0.9 z"
   id="path4" />
<path
   class="st0"
   d="m 623.54,105.48357 c -0.4,-2.6 -2.2,-4.5 -3.4,-6.6 -1.3,-2.3 -2.3,-5.1 -4.3,-6.6 -2.5,-2 -4.6,1.3 -7,2 -9.8,2.7 -25.2,-4.6 -29,-14 -1.1,-2.6 0.1,-3.7 2.1,-4.6 5.2,-2.4 10.6,-2.4 16.2,-1.7 1.3,0.2 2.6,0.4 4.8,-0.3 -2.7,-3.2 -5.3,-6.4 -8.1,-9.4 -1.3,-1.4 -2.1,0.3 -2.8,1 -8.4,7.7 -23.3,2.6 -29.1,-3.6 -2,-2.2 -2.1,-3.9 0.5,-5.6 4.6,-3.1 9.7,-4.2 15.2,-4 0.9,0 2,1.2 2.6,0 0.7,-1.2 -0.3,-2.2 -1.2,-3 -3,-2.7 -5.9,-5.4 -8.8,-8.1 -8.6,9.1 -20,10.8 -29.3,4.5 -3.9,-2.6 -4.1,-4.1 -0.5,-7.1 5.2,-4.4 11.4,-6 18.3,-6.2 -5.6,-3.6 -8.9,-10.7 -18,-8.8 -10,2 -25.5,-8.9 -28.3,-18.4999999 -0.7,-2.5 0,-3.6 2.5,-4.2 10,-2.6 26.3,3.7 30.8,12.8999999 2.1,4.3 5.4,6.4 9.5,9.2 -0.9,-6.2 -1.6,-11.9 0.5,-17.4999999 1.9,-5.2 3.4,-5.7 7.9,-2.6 10.1,6.8 14.1,20.1999999 9,30.6999999 -0.9,1.9 -0.9,2.8 0.7,4.1 2.5,1.9 4.7,4.1 7.7,6.7 0.2,-5.2 -0.2,-9.9 1.3,-14.3 1.3,-3.8 2.4,-9 6.3,-9.4 3.9,-0.4 6.6,4.1 8.4,7.6 5.1,9.6 7.5,19.4 -0.1,28.9 -1.2,1.5 -1,2.5 0.2,3.8 2.6,2.8 5,5.7 7.9,9.1 1.2,-6 2,-11.4 4.7,-16.2 2.2,-4 4.8,-9.4 9,-9.1 4.4,0.3 6.2,6 7.5,10.3 3.3,11.5 3.5,22.5 -6.7,31.1 -1.4,1.2 -1.1,2.1 -0.2,3.3 2.5,3.9 5,7.8 7.8,12.1 1.6,-4.4 2.3,-8.7 4.2,-12.5 3.2,-6.4 7.3,-11.9 13.5,-15.6 2.4,-1.4 3.8,-1 5.3,1.2 7.1,10.4 7.8,37.7 -9.9,46.3 -1.9,0.9 -2.9,1.7 -1.9,4.1 2.2,5.4 4.2,10.9 6.4,16.8 3.1,-5.6 6.3,-10.6 10.7,-14.6 3.8,-3.5 8,-6.4 13,-8.1 3.2,-1.1 5.1,-0.5 6.3,3.1 5.4,16.6 -5.2,38.7 -21.6,44.1 -2.4,0.8 -3.2,1.6 -2.9,4.1 0.6,4.3 0.9,8.6 1.3,13.2 2,-0.2 2.9,-2 4.1,-3.1 6.6,-5.9 14,-10.1 23,-11.2 3.5,-0.4 5.1,0.8 5.4,4.4 1.3,13.7 -11.3,39.2 -31.4,39.4 -1.8,0 -3.2,0.2 -3.5,2.5 -1.3,8.2 -3.6,16.2 -6.4,25 8.3,-3.9 16.3,-6.2 24.8,-6 3.7,0.1 7.2,0.8 10.7,2 2.9,1 3.4,2.6 2.6,5.3 -4.1,14 -27.2,33.3 -46.7,24.9 -2.3,-1 -3.4,-0.6 -4.6,1.7 -2.8,5 -5.9,9.9 -9.2,15.2 9.2,-1.6 17.8,-1.9 26.2,0.9 4.3,1.4 9.9,2.7 10.8,7 0.8,4 -3.7,7.5 -7,10.2 -10.2,8.2 -21.6,12.9 -35.1,10.9 -3,-0.5 -6.1,-1.2 -8.3,-3.1 -4,-3.5 -6.9,-3 -10,1.2 -2.6,3.6 -5.7,6.8 -8.4,9.9 6.2,0.4 13.3,1.1 19.9,3.8 5.5,2.2 10.4,5.1 14.5,9.4 2,2.1 2.1,3.6 0.1,5.9 -13.3,15.6 -43.9,17.1 -58.2,2.6 -2.1,-2.2 -3.4,-2.2 -5.7,-0.5 -4.8,3.5 -9.8,6.6 -15.4,10.2 10.1,2.4 19,5.6 25.8,12.6 8,8.1 7.4,8.9 -1.7,13.8 -11.8,6.4 -24.5,7 -37.3,3.2 -6.2,-1.9 -11.4,-5.6 -15.1,-11 -1.7,-2.5 -3.1,-2.5 -5.7,-1.3 -12.7,5.8 -25.9,10.5 -39.3,14.6 -2.9,0.9 -4.1,1.5 -3.8,-2.9 0.4,-7 3.5,-9.9 10,-11.6 7.9,-2 15.4,-5.2 23.1,-7.8 2.3,-0.8 3,-1.5 1.8,-4.1 -8.5,-18.9 2.4,-45.7 21.6,-53.8 3.4,-1.5 5.2,-0.6 6.5,2.6 5.3,12.4 4.2,24.7 -0.4,36.9 -0.6,1.7 -1.4,3.3 -2.1,4.9 1.6,1.2 2.7,0 3.8,-0.6 3.5,-1.9 7,-3.8 10.5,-5.7 3,-1.7 7,-2.9 8.7,-5.6 2,-3.1 -2.3,-5.9 -3.5,-8.9 -5.8,-15.3 4.2,-40.4 19.1,-47.4 2.6,-1.2 3.9,-0.5 5.2,1.7 6,9.6 6.2,20.1 4.7,30.9 -0.2,1.6 -0.6,3.3 -0.9,4.9 -0.1,0.4 -0.2,0.8 -0.3,1.2 0.3,-0.1 0.7,-0.3 1,-0.4 4.9,-3.5 9,-7.9 13.5,-11.8 2,-1.7 1.4,-2.6 -0.1,-4.3 -12.7,-13.6 -11.1,-38.9 3.1,-51.3 2.5,-2.2 4.3,-2.3 6.6,0.3 7.1,8.1 9.5,17.7 9.6,28.2 0,1.2 0,2.3 0,3.5 0,0.1 0.1,0.2 0.5,0.8 4.3,-5 7.5,-10.5 10.9,-15.8 1.2,-1.8 -0.5,-2.2 -1.5,-3 -14.6,-10.7 -18.8,-32.6 -9.4,-48.2 2.4,-4 4.6,-4.5 8.2,-1.7 6.4,5 10.5,11.5 13.2,19 0.8,2.2 1.4,4.4 2.4,7.4 3.6,-7.3 5.4,-14.6 7.3,-21.9 0.5,-1.9 -1,-1.8 -2.1,-1.8 -18.7,-0.8 -29.6,-24.7 -27.8,-38.6 0.7,-5.3 1.5,-6.1 6.7,-4.9 10.2,2.5 17.7,8.8 23.6,17.3 0.8,1.2 1.6,2.5 3,4.8 0.9,-8 0.7,-14.8 0.1,-21.7 -0.2,-2 -1.4,-2 -2.8,-1.7 -17.6,3.6 -33.3,-16.5 -35,-30.3 -0.7,-5.8 0,-6.8 5.9,-6.7 8.7,0.2 16.1,3.8 22.8,9 1.1,0.9 2.2,1.8 3.7,3.1 0.4,-6.8 -2.6,-12.1 -4.3,-17.7 -0.5,-1.8 -1.8,-1.3 -3.2,-1 -15.7,4.2 -32,-3.8 -38.4,-18.8 -2.5,-5.9 -1.6,-7.5 4.9,-8.6 8.7,-1.4 16.8,0.7 24.6,4.6 0.4,0.1 0.7,0.1 1.1,0.2 0.4,-0.5 0.2,-0.8 0,-1.1 z m -91.8,216.9 c -0.4,-2.8 -0.7,-5.6 -1.1,-8.4 -0.5,-4 -2.3,-3.4 -4.6,-1.4 -7.4,6.5 -12.5,14.3 -14.3,24 -1.1,6 -0.6,12 3,17.3 0.9,1.3 1.9,2.7 3.4,0.7 7.2,-9.6 13.3,-19.6 13.6,-32.2 z m 8.5,35.2 c -4.2,-0.1 -8.3,-0.3 -12.2,1.6 -2.5,1.2 -2.7,2.6 -1.3,4.7 3.1,4.3 7,7.5 12.1,9.1 9.8,2.9 19.4,2 28.8,-1.5 3.8,-1.4 3.3,-2.8 0.4,-4.9 -8.3,-6 -17.4,-9.5 -27.8,-9 z m 56.1,-31 c -6.3,0.4 -12.6,1.3 -18.7,3.9 -3.5,1.5 -3.7,3.4 -0.9,5.8 1,0.9 2,1.8 3.1,2.5 9.3,6.5 29.1,5.5 38.4,-1.7 2.7,-2.1 1.2,-3.3 -0.7,-4.4 -6.5,-3.6 -13.4,-5.8 -21.2,-6.1 z m -21.6,-25.1 c -0.3,-3 -0.4,-6 -0.9,-8.9 -0.2,-1.6 -0.2,-3.7 -2,-4.3 -1.9,-0.6 -3,1.2 -4,2.5 -5.3,6.6 -9,13.9 -9.5,22.6 -0.3,5.2 0.9,9.8 3.8,14.2 2.2,3.2 3.5,2.8 5.1,-0.4 4.3,-8.2 7.7,-16.4 7.5,-25.7 z m 63.9,-13 c -9.5,-0.6 -17.8,3.4 -26.5,5.2 -3.1,0.7 -2.8,2.4 -0.8,4.1 1,0.9 2.1,1.6 3.2,2.3 11.7,7.6 27.4,2 36.7,-6 2.4,-2.1 1.2,-3.4 -1.1,-4.2 -3.8,-1.2 -7.7,-1.6 -11.5,-1.4 z m 32,-48 c -8.8,0.3 -16.8,2.8 -23.2,8.9 -2.3,2.2 -7,4.4 -5.9,7.2 1.5,3.7 6.5,3 10.3,2.9 1,0 2,-0.3 2.9,-0.5 7.6,-1.7 13.5,-6.2 18.7,-11.8 1.5,-1.6 4.5,-3 3.2,-5.6 -1.1,-2.1 -3.9,-0.7 -6,-1.1 z m -12.9,-36.8 c 11.4,0.2 20.6,-11.6 23.7,-23.8 0.3,-1.1 1.3,-2.7 -0.3,-3.6 -1.1,-0.7 -2.2,0.2 -3.3,0.6 -10.6,4 -16.9,12.6 -22.9,21.5 -0.9,1.3 -2.6,2.7 -1.7,4.4 1,1.6 3.1,0.6 4.5,0.9 z m -51.4,75.1 c 0.3,-7.7 -1.3,-12.8 -3.3,-17.7 -0.5,-1.2 -0.9,-2.8 -2.4,-2.8 -1.5,-0.1 -2.1,1.5 -2.7,2.6 -2.6,5.3 -4.3,10.7 -4.6,16.7 -0.2,6.6 1.2,12.5 6.4,17.1 1.9,1.7 3.2,2.3 4,-0.9 1.4,-5.8 2.3,-11.5 2.6,-15 z m 67.9,-148.6 c 0.1,-2 -0.2,-3.4 -1.2,-3.7 -1.6,-0.6 -2.4,0.7 -3.5,1.5 -8.4,6 -12.7,14.7 -15.7,24.2 -0.5,1.6 -2.2,3.5 -0.4,5 1.6,1.3 3.5,0.1 5.2,-0.5 3.5,-1.3 6.4,-3.6 8.6,-6.6 4.3,-5.8 6.1,-12.5 7,-19.9 z m -42.9,120.4 c 0,-10.1 -2.3,-19.1 -8.5,-26.9 -1.1,-1.4 -3.1,-4.1 -4.1,-0.2 -2.6,10.3 -2.7,20.5 4.5,29.4 1.8,2.2 4.2,4.8 7,3.8 2.5,-0.9 0.6,-4.3 1.1,-6.1 z m -6,-69.4 c -1.7,0 -1.8,1.1 -1.9,2.3 -0.7,8.1 9.1,22.1 16.8,23.8 3,0.7 4.3,0 3.5,-3.5 -2.2,-9.7 -7.8,-16.6 -16.2,-21.5 -0.7,-0.4 -1.5,-0.8 -2.2,-1.1 z m 16.8,-17.6 c 1.3,-0.2 3.1,0.4 3.9,-1.2 0.6,-1.4 -0.7,-2.5 -1.4,-3.5 -1.8,-2.4 -3.5,-4.9 -5.6,-7 -4.6,-4.4 -9.6,-8.2 -16,-9.6 -1.7,-0.4 -3.5,-0.9 -2.9,2.1 1.4,8.4 13.5,19.1 22,19.2 z m -1.7,-57.5 c 0.7,1.7 -2.1,4.9 0.5,5.9 2.9,1.1 5.1,-1.9 6.8,-4 5.9,-7.2 5.6,-15.7 4.3,-24.2 -0.6,-3.9 -2.6,-1.8 -3.9,-0.2 -5.4,6.3 -7.9,13.7 -7.7,22.5 z m -13.1,15.6 c 1.2,-0.3 2.7,-0.5 4.1,-1 1.8,-0.6 1.8,-1.7 0.5,-3 -6.2,-6.1 -13.3,-10.2 -22.2,-11 -2.5,-0.2 -3.8,0.8 -2.1,3.1 4.9,6.6 11.2,10.9 19.7,11.9 z m -1,-56.1 c 0.1,-3.7 -0.6,-6.6 -1.6,-9.5 -0.5,-1.5 -1.2,-2.5 -2.7,-0.7 -3,3.6 -4.2,15 -2,19.2 1.1,2.1 2.3,2.3 3.6,0.3 2,-3.1 2.5,-6.5 2.7,-9.3 z m -31.8,-29.4 c -0.4,3.8 0.4,6.9 1.6,9.8 0.3,0.7 0.5,1.7 1.5,1.7 1,-0.1 1.3,-1 1.5,-1.8 0.7,-3.1 0.7,-6.3 -0.3,-9.4 -0.6,-2 -0.8,-5.3 -3.2,-5 -2.2,0.4 -0.8,3.5 -1.1,4.7 z m -26.2,-24.6 c -1.3,4.9 0.1,9.4 1.3,13.8 0.2,0.9 0.4,2.2 1.7,2 1.1,-0.2 1.4,-1.4 1.6,-2.3 1.5,-5.5 -1.2,-9.6 -4.6,-13.5 z m 27.6,68.8 c 4.6,3.5 9.2,6.8 16.4,4.1 -5.5,-3.6 -10.4,-5.6 -16.4,-4.1 z m -65,-73.2999999 c 3.5,4.7999999 7.7,6.7999999 12.2,5.9999999 -3.4,-3.2999999 -6.9,-5.7999999 -12.2,-5.9999999 z m 35.2,30.0999999 c -2.7,0 -5.7,-1.4 -8,2.1 3.3,0.7 5.9,0.5 8,-2.1 z m 21.8,22.4 c -3.1,-2.3 -5.4,-2 -8.3,-1.4 2.3,2 4.6,1.5 8.3,1.4 z"
   id="path6" />
<path
   class="st1"
   d="m 194.84,85.78357 c -4,12.3 -7.9,24.5 -11.7,36.6 -0.9,2.8 -1.6,4.5 -5.2,4.5 -3.6,0 -4.8,-1.4 -5.9,-4.5 -4.6,-13.9 -9.5,-27.7 -14.1,-41.6 -1.3,-4 -3.5,-6.7 -7.5,-7.9 -1,-0.3 -2.5,-0.3 -2.4,-2 0.2,-2.1 1.9,-1.4 3.1,-1.4 8.2,-0.1 16.3,-0.1 24.5,0 1.1,0 2.6,-0.4 2.7,1.3 0.2,1.6 -1.1,1.8 -2.3,1.9 -4.9,0.3 -5,2.9 -3.6,6.8 3.4,9.7 6.5,19.5 9.8,29.5 2.1,-0.9 1.9,-2.8 2.3,-4.2 3.4,-10.4 6.7,-20.9 9.9,-31.4 0.8,-2.7 1.8,-4.2 5,-4.1 3.2,0.1 5,0.7 6.2,4.1 4.2,12.4 8.7,24.7 13.5,38.3 4.1,-12 7.5,-22.8 10.2,-33.9 1,-4.3 -2.6,-4.2 -5.2,-5 -1.2,-0.4 -3.5,0.4 -3.3,-2 0.2,-2.3 2.3,-1.4 3.5,-1.4 5.5,-0.1 11,-0.1 16.5,0 1,0 2.5,-0.5 2.8,1.2 0.2,1.6 -1,2 -2.1,2.3 -4.5,1.1 -6.3,4.5 -7.6,8.4 -4.6,13.7 -9.4,27.4 -14,41.1 -0.9,2.8 -1.9,4.4 -5.3,4.4 -3.6,0.1 -4.8,-1.4 -5.8,-4.5 -3.6,-10.6 -7.4,-21 -11.2,-31.5 -0.8,-1.5 -1.1,-3.4 -2.8,-5 z"
   id="path8" />
<path
   class="st1"
   d="m 486.54,77.48357 c -0.7,-3.2 -3.2,-3.9 -5.9,-4.5 -1.2,-0.3 -2.9,-0.2 -2.7,-2.2 0.2,-1.7 1.7,-1.3 2.8,-1.3 11.5,0 23,0 34.5,0.1 2,0 4,0.5 5.9,1 6.4,1.7 9.9,5.2 10.5,10.6 0.7,6.4 -1.8,11.2 -7.7,14.4 -5.6,3 -5.6,3.1 -1.7,8 3.7,4.7 7.4,9.4 11.3,14 2,2.4 4.1,4.8 7.7,5.1 1.2,0.1 2.4,0.5 2.2,2.1 -0.2,1.3 -1.2,1.4 -2.3,1.4 -5.8,0 -11.7,-0.1 -17.5,0 -2.1,0 -2.8,-1.5 -3.7,-2.8 -4.9,-6.7 -9.8,-13.5 -14.7,-20.2 -0.8,-1.1 -1.6,-3.1 -3.3,-2.6 -2.2,0.7 -1,2.8 -1.1,4.3 -0.2,3.7 0.1,7.3 -0.1,11 -0.2,3.3 0.8,5.5 4,6.6 3.5,4.9 -2.6,1.9 -2.9,3.5 -6.7,0 -13.4,0 -20.1,0 -3.5,-2.3 1.2,-2.1 1.1,-3.4 1.7,-0.5 2.9,-1.6 3.8,-3.1 1,-1.2 1.2,-2.7 1.2,-4.2 0,-11.2 0,-22.4 0,-33.6 -0.3,-1.5 -0.4,-2.9 -1.3,-4.2 z m 14,7.4 c 0,2.8 0.1,5.7 0,8.5 -0.2,2.6 0.7,3.5 3.3,3.4 7.2,-0.1 11.5,-4 11.9,-11.2 0.5,-8.1 -2.9,-11.9 -11.1,-12.7 -2.8,-0.3 -4.5,0.2 -4.1,3.6 0.2,2.7 0,5.5 0,8.4 z"
   id="path10" />
<path
   class="st2"
   d="m 400.64,106.68357 c 0,-9 0.1,-17.2 0,-25.5 -0.1,-4.1 -2.1,-6.9 -6.4,-7.8 -1.3,-0.3 -3.5,-0.3 -3.2,-2.3 0.3,-2.6 2.6,-1.4 4,-1.4 5.7,-0.1 11.3,-0.1 17,0 1.2,0 2.9,-0.7 3.3,1.2 0.3,2 -1.4,1.9 -2.7,2.1 -5.6,0.8 -6.8,4.8 -6.8,9.5 -0.1,13 -0.1,26 -0.2,39 0,1.7 1.4,4.5 -1.4,5.1 -2.6,0.5 -5.3,0.8 -7.6,-2.1 -10.6,-13.5 -21.4,-26.8 -32.1,-40.1 -1.8,0.6 -1,2 -1,2.9 -0.1,8.7 0,17.3 0,26 0,4.9 1.7,8.4 6.9,9.4 1.4,0.3 3.3,0.5 2.9,2.6 -0.3,1.8 -2.1,1.2 -3.3,1.3 -6,0 -12,0.1 -18,0 -1.2,0 -2.9,0.6 -3.2,-1.4 -0.3,-1.9 1.3,-2.1 2.6,-2.3 4.8,-0.6 6.9,-3.7 6.9,-8.2 0.1,-10.8 0.2,-21.6 0,-32.5 -0.1,-4.6 -2.9,-7.2 -7.1,-8.6 -1.2,-0.4 -2.8,-0.6 -2.5,-2.5 0.3,-2.1 2,-1 3.2,-1.3 0.2,0 0.3,0 0.5,0 17.4,-0.4 17.4,-0.4 28.3,13.2 6.2,7.6 12.4,15.2 18.6,22.9 0.1,-0.1 0.4,0.1 1.3,0.8 z"
   id="path12" />
<path
   class="st1"
   d="m 336.64,125.48357 c -3.6,1.9 -6.6,1.7 -9.3,-1.8 -5.2,-6.7 -10.6,-13.3 -15.9,-19.9 -5.3,-6.6 -10.6,-13.2 -16,-19.8 -1.7,1 -1,2.5 -1,3.6 0,8.3 0.1,16.7 0.1,25 0,5 1.7,8.8 7.2,9.8 1.3,0.3 2.9,0.5 2.6,2.4 -0.3,1.9 -1.9,1.5 -3.2,1.5 -6,0 -12,0 -18,0 -1.3,0 -3,0.4 -3.1,-1.6 -0.1,-1.8 1.5,-1.9 2.8,-2.1 4.6,-0.7 6.6,-3.7 6.6,-8 0.1,-10.8 0.2,-21.7 0.1,-32.5 0,-4.5 -2.8,-7.3 -7,-8.7 -1.3,-0.5 -3.3,-0.6 -2.8,-2.7 0.4,-1.9 2.2,-0.9 3.3,-1.2 0.2,0 0.3,0 0.5,0 12.4,-2.3 21.3,1.9 28.2,12.8 5.5,8.7 13,16.3 20.1,24.1 0.2,-9.2 1.2,-18.3 -0.4,-27.3 -0.6,-3.6 -3.2,-5.2 -6.5,-6 -1.2,-0.3 -2.9,-0.4 -2.5,-2.4 0.4,-2 2.1,-1.2 3.2,-1.3 6,-0.1 12,-0.1 18,0 1,0 2.5,-0.6 2.8,1.1 0.4,2 -1.3,1.9 -2.6,2.1 -3.5,0.5 -5.8,2.4 -6.7,5.8 -0.4,0.5 -1.2,1 -1.2,1.5 -0.5,15 -1.2,30 0.3,44.9 0.1,0.4 0.3,0.6 0.4,0.7 z"
   id="path14" />
<path
   class="st2"
   d="m 453.44,125.98357 c -1.6,0 -3.1,0 -4.7,0 -1.9,-2 -4.3,-1.4 -6.6,-1.5 -7.2,-0.5 -14.6,1.2 -21.8,-1.4 5.4,-0.4 7.2,-3.2 7,-8.6 -0.4,-11.1 -0.3,-22.3 0,-33.5 0.1,-4.5 -1.1,-7.4 -5.9,-8.1 -1.3,-0.2 -2.9,-0.4 -2.5,-2.3 0.3,-1.6 1.9,-1.1 2.9,-1.1 14.8,0 29.6,0 44.4,0 1.6,0 3,0 3,2.2 0,3.3 0,6.7 0,10 0,0.9 -0.1,1.7 -1.1,2 -0.8,0.2 -1.7,0.1 -2.3,-0.6 -0.4,-0.5 -0.6,-1.2 -1,-1.7 -4.9,-7.4 -13.1,-10.6 -21.5,-8.5 -1.1,0.3 -1.8,0.7 -1.8,1.9 0,6 0,12 0,18 0,1.1 0.4,1.7 1.6,2.1 5.8,1.6 11,-0.8 13.4,-6.4 0.5,-1.3 0.4,-3.4 2.6,-3 2.3,0.4 1.2,2.4 1.2,3.7 0.1,5.7 0.1,11.3 0,17 0,1 0.5,2.5 -1.3,2.8 -1.6,0.3 -1.8,-1 -2.3,-2.1 -3.2,-7.3 -5,-8.4 -12.2,-8.2 -2.2,0.1 -3.3,0.5 -3.3,3 0.2,5 0.1,10 0,15 0,3.9 1.9,5.8 5.8,6 1.7,0.1 3.3,-0.1 5,0.1 7.4,0.8 12.5,-2.4 15.4,-9.1 0.6,-1.4 1.4,-2.6 2.1,-4 0.5,-0.8 1.3,-1 2.2,-0.9 1.1,0.2 1.2,1 1.2,1.9 -0.2,4.7 -0.5,9.3 -0.8,14 -0.1,1.8 -1.3,2.1 -2.9,1.7 -5.1,-2.9 -10.5,-2.7 -15.8,-0.4 z"
   id="path16" />
<path
   class="st2"
   d="m 267.24,118.28357 c 0.7,2.9 2.8,3.9 5.5,4.2 1.4,0.2 3.4,-0.1 3.1,2.2 -0.2,2 -1.9,1.5 -3.2,1.5 -8.3,0 -16.7,0 -25,0 -1.2,0 -3,0.4 -3,-1.6 0,-1.9 1.6,-1.9 2.9,-1.9 3.7,0.1 5.4,-2 6,-5.4 1.3,-0.4 1,-1.5 1,-2.5 0,-11.6 0,-23.2 0,-34.8 0,-0.9 0.4,-2.1 -1.1,-2.4 -0.9,-3.2 -3.4,-4.2 -6.3,-4.8 -1.2,-0.2 -2.9,-0.3 -2.5,-2.3 0.3,-1.7 1.8,-1.1 2.8,-1.1 8.6,0 17.2,0 25.9,0 0.9,0 2.1,-0.4 2.4,1 0.2,1.1 -0.1,2.1 -1.4,2.1 -7,0 -7.5,4.5 -7,9.8 0.1,0.6 -0.1,1.3 -0.2,2 -0.3,-2 -0.6,-3.9 -1,-5.9 -0.6,12 -0.6,24 -0.6,35.9 0.1,1.6 0.3,3.1 1.7,4 z"
   id="path18" />
<path
   class="st0"
   d="m 267.24,118.28357 c -1.4,-1 -1.6,-2.4 -1.6,-4 0,-12 0,-23.9 0.6,-35.9 0.3,2 0.6,3.9 1,5.9 -0.1,11.4 0,22.7 0,34 z"
   id="path20" />
<path
   class="st0"
   d="m 336.64,125.48357 c -0.1,-0.1 -0.2,-0.3 -0.2,-0.4 -1.5,-15 -0.8,-29.9 -0.3,-44.9 0,-0.5 0.8,-1 1.2,-1.5 -0.1,13.8 -0.2,27.6 -0.3,41.4 -0.2,1.8 -0.3,3.6 -0.4,5.4 z"
   id="path22" />
<path
   class="st0"
   d="m 420.44,123.08357 c 7.1,2.6 14.5,0.9 21.8,1.4 2.3,0.1 4.7,-0.4 6.6,1.5 -9.1,0 -18.2,0 -27.4,0 -0.9,-0.7 -1.7,-1.4 -1.8,-2.5 0.2,-0.1 0.5,-0.3 0.8,-0.4 z"
   id="path24" />
<path
   class="st0"
   d="m 486.54,77.48357 c 1,1.3 1.1,2.7 1.1,4.2 0,11.2 0,22.4 0,33.6 0,1.5 -0.1,3 -1.2,4.2 0,-14 0,-28 0.1,-42 z"
   id="path26" />
<path
   class="st0"
   d="m 253.54,77.68357 c 1.5,0.3 1.1,1.5 1.1,2.4 0,11.6 0,23.2 0,34.8 0,0.9 0.3,2.1 -1,2.5 0,-11.2 0,-22.5 0,-33.7 0,-1.1 0,-2.3 0,-3.4 -0.1,-0.8 -0.1,-1.7 -0.1,-2.6 z"
   id="path28" />
<path
   class="st0"
   d="m 453.44,125.98357 c 5.4,-2.3 10.7,-2.5 16.1,0 -5.4,0 -10.8,0 -16.1,0 z"
   id="path30" />
<path
   class="st3"
   d="m 501.64,126.08357 c 0.4,-1.7 6.4,1.3 2.9,-3.5 1.6,0 3.7,-0.2 3.7,2 0,2.5 -2.3,1.6 -3.7,1.7 -1,0.1 -2,-0.1 -2.9,-0.2 z"
   id="path32" />
<path
   class="st3"
   d="m 482.54,122.58357 c 0.1,1.3 -4.6,1.1 -1.1,3.4 -1.5,0.2 -3.8,1 -3.6,-1.5 0.2,-2.7 2.9,-1.7 4.7,-1.9 z"
   id="path34" />
<path
   class="st2"
   d="m 419.54,123.48357 c 0.2,1.2 1,1.9 1.8,2.5 -0.9,0.3 -1.8,0.4 -2.4,-0.6 -0.3,-0.7 -0.3,-1.5 0.6,-1.9 z"
   id="path36" />
<path
   class="st2"
   d="m 253.54,80.28357 c 0,1.1 0,2.3 0,3.4 0,-1.1 0,-2.3 0,-3.4 z"
   id="path38" />
<path
   class="st4"
   d="m 89.140001,343.48357 c -7.1,-0.6 -14.7,-1.9 -21.6,-6 -2.7,-1.6 -2.8,-3.1 -0.1,-4.7 13,-7.6 26.5,-7.7 40.199999,-2.2 3.4,1.4 3.2,3.2 0.8,5.6 -4.1,4.4 -11.199999,7.2 -19.299999,7.3 z"
   id="path40" />
<path
   class="st4"
   d="m 153.64,321.68357 c 0.3,-3.4 -0.6,-8.9 2.2,-9.9 3.5,-1.3 6.3,3.5 8.7,6.3 6,7.3 9.6,15.6 9.2,25.2 -0.1,2.1 -0.6,4.3 -1.3,6.3 -0.7,2 -1.2,4.7 -3.4,5.2 -2.6,0.6 -3.1,-2.5 -4.4,-4.1 -6.9,-8.3 -10.7,-17.8 -11,-29 z"
   id="path42" />
<path
   class="st4"
   d="m 144.94,357.28357 c 3,0.2 6,0.1 8.9,0.7 6.5,1.4 7,3.7 2.5,8.4 -5.1,5.3 -11.6,7.6 -18.7,8 -6.4,0.4 -12.6,-0.5 -18.6,-2.6 -1.5,-0.5 -3.6,-0.8 -3.8,-2.7 -0.2,-1.8 1.8,-2.7 3.1,-3.5 8,-5.2 16.7,-8.6 26.6,-8.3 z"
   id="path44" />
<path
   class="st4"
   d="m 110.54,300.08357 c -0.1,-2.8 0.1,-6.5 1.2,-10 0.7,-2.1 1.7,-2.6 3.7,-1.2 10,6.8 14.5,27.7 8,37.7 -2.8,4.3 -3.3,4.3 -5.9,0.1 -4.5,-7.7 -7,-17 -7,-26.6 z"
   id="path46" />
<path
   class="st4"
   d="m 46.440001,288.48357 c 10.1,-0.3 18.3,3.4 26.9,5.4 3.5,0.8 1.9,2.8 0.2,4.2 -6.4,5.7 -14,6.6 -22,5.1 -6.3,-1.2 -11.8,-4.4 -16.9,-8.3 -1,-0.8 -2.4,-1.6 -2.1,-3.1 0.3,-1.5 1.8,-1.8 3.1,-2.1 3.9,-1 7.9,-1.4 10.8,-1.2 z"
   id="path48" />
<path
   class="st4"
   d="m 14.740001,240.48357 c 11.4,0 20.3,5.3 27.9,13.4 2.6,2.7 1.3,3.9 -1.6,4.8 -8.3,2.5 -15.3,-0.4 -22,-4.9 -3.3,-2.2 -6,-5.2 -8.8,-8.1 -1.0000002,-1.1 -2.4000002,-2.4 -1.9000002,-3.9 0.7,-2 2.8000002,-1.1 4.4000002,-1.3 0.6,0 1.3,0 2,0 z"
   id="path50" />
<path
   class="st4"
   d="m 27.840001,203.58357 c -6.5,0.4 -11.1,-2.7 -15,-6.7 -4.7000002,-4.8 -7.7000002,-10.8 -9.3000002,-17.4 -0.7,-2.8 -0.4,-4.3 3.1,-3 11.8000002,4.6 18.9000002,14 24.8000002,24.3 2.4,4.3 -2.7,1.8 -3.6,2.8 z"
   id="path52" />
<path
   class="st4"
   d="m 78.640001,276.38357 c 0,-5.7 1.3,-11.2 3.9,-16.3 0.8,-1.6 1.6,-3 3.6,-0.9 7.4,7.7 7.3,27.3 -0.1,34.7 -2.7,2.7 -4.2,2.9 -4.9,-1.4 -1.1,-5.3 -2.5,-10.6 -2.5,-16.1 z"
   id="path54" />
<path
   class="st4"
   d="m 13.040001,126.18357 c 0.6,0.4 1.3,0.9 2,1.4 9.9,6.5 13.5,17 17.1,27.3 1,2.9 -1.4,2.9 -3.3,2.5 -5.1,-1.1 -9.1,-4.2 -11.9,-8.5 -3.6,-5.5 -5.3,-11.8 -6,-18.3 -0.2,-1.7 -0.6,-3.8 2.1,-4.4 z"
   id="path56" />
<path
   class="st4"
   d="m 67.740001,234.58357 c 0,8.5 -2.1,16.1 -9.7,21.2 -3,2 -4.4,1.6 -4.4,-2.3 0,-10.5 1.4,-20.6 8.1,-29.2 0.9,-1.1 1.7,-2.9 3.4,-2.5 1.4,0.4 1.3,2.2 1.7,3.4 0.9,3 1,6.2 0.9,9.4 z"
   id="path58" />
<path
   class="st4"
   d="m 61.640001,183.98357 c 0,8.2 -8.2,20.2 -15.6,22.9 -1.4,0.5 -3,1.2 -4.3,0.2 -1.6,-1.2 -0.4,-2.7 -0.1,-4.1 2,-9.7 8.1,-16.2 16.3,-21 2.3,-1.3 3.9,-1.3 3.7,2 z"
   id="path60" />
<path
   class="st4"
   d="m 43.540001,163.58357 c -1.8,-0.1 -3.3,0.2 -4.2,-1 -1,-1.4 0.3,-2.5 1,-3.5 4.9,-7.1 10.8,-13 19,-16.1 1.7,-0.6 4,-2.2 5.5,-0.4 1.3,1.5 -0.5,3.4 -1.3,5 -4.3,8.4 -10.3,14.9 -20,16 z"
   id="path62" />
<path
   class="st4"
   d="m 32.640001,89.58357 c 0.2,-1.7 -1.3,-6.7 1.9,-7.5 3,-0.8 4.5,4.1 6.2,6.9 4,6.5 3.9,14 4.5,21.2 0.3,3.2 -2.1,2.3 -3.7,1.3 -5.7,-3.5 -8.1,-9.1 -8.8,-15.4 -0.2,-1.7 -0.1,-3.4 -0.1,-6.5 z"
   id="path64" />
<path
   class="st4"
   d="m 58.040001,121.78357 c -1.5,-0.3 -3,-0.6 -4.4,-0.9 -2.4,-0.5 -2.1,-1.6 -0.6,-3 6.3,-6.1 13.4,-10.2 22.3,-10.9 1,-0.1 2.2,-0.4 2.6,0.7 0.2,0.6 0,1.7 -0.5,2.3 -4.9,6.4 -11.2,10.7 -19.4,11.8 z"
   id="path66" />
<path
   class="st4"
   d="m 66.540001,67.28357 c -0.2,1 -0.4,2.4 -0.7,3.6 -0.5,1.8 0,4.7 -2.3,5 -2.5,0.2 -3.1,-2.6 -3.7,-4.6 -1.5,-4.7 -1.4,-9.5 0,-14.2 0.3,-1 0.4,-2.6 1.9,-2.6 1.4,0 1.6,1.5 2.1,2.5 1.4,3.2 2.2,6.5 2.7,10.3 z"
   id="path68" />
<path
   class="st4"
   d="m 90.740001,37.18357 c 0.3,3.1 -0.5,5.6 -1.4,8.1 -0.4,1 -0.4,2.7 -2,2.3 -1.2,-0.3 -1.4,-1.7 -1.5,-2.9 -0.4,-3.7 -0.2,-7.3 1.4,-10.8 0.5,-1.1 0.7,-3 2.5,-2.5 1.3,0.4 1,1.9 1.1,3 -0.1,1.2 -0.1,2.2 -0.1,2.8 z"
   id="path70" />
<path
   class="st4"
   d="m 117.04,9.6835701 c 1.4,6.5999999 -0.6,11.3999999 -1.6,16.2999999 -0.2,0.8 -0.5,1.8 -1.5,1.6 -0.6,-0.2 -1.2,-1.1 -1.4,-1.8 -2.3,-5.9 1.1,-10.4 4.5,-16.0999999 z"
   id="path72" />
<path
   class="st4"
   d="m 89.840001,79.98357 c -4.1,3.9 -8.4,5.6 -13.3,5.6 -1,0 -2.2,0.1 -2.6,-1 -0.4,-1.3 0.9,-1.6 1.7,-2 4.2,-2 8.6,-3.8 14.2,-2.6 z"
   id="path74" />
<path
   class="st4"
   d="m 155.14,7.2835701 c -4.2,3.7999999 -7.8,6.0999999 -12.7,6.7999999 1.9,-4.1999999 5.7,-6.3999999 12.7,-6.7999999 z"
   id="path76" />
<path
   class="st4"
   d="m 128.54,39.38357 c -4.5,0.4 -7.4,0.7 -10.3,-2.3 3.7,-0.7 6.5,-0.4 10.3,2.3 z"
   id="path78" />
<path
   class="st4"
   d="m 104.94,58.18357 c -2.2,1.7 -4.4,1.8 -7.399999,0.9 2.799999,-1.9 5.199999,-1.3 7.399999,-0.9 z"
   id="path80" />
<path
   class="st5"
   d="m 62.140001,106.18357 c -0.4,0.1 -0.7,0.1 -1.1,0.2"
   id="path82" />
<path
   class="st4"
   d="m 531.74,322.38357 c -0.3,12.6 -6.4,22.6 -13.6,32.2 -1.5,2 -2.5,0.7 -3.4,-0.7 -3.6,-5.3 -4.1,-11.3 -3,-17.3 1.8,-9.7 6.9,-17.6 14.3,-24 2.3,-2 4.1,-2.6 4.6,1.4 0.3,2.8 0.7,5.6 1.1,8.4 z"
   id="path84" />
<path
   class="st4"
   d="m 540.24,357.58357 c 10.4,-0.5 19.5,3 27.9,8.9 2.9,2.1 3.3,3.5 -0.4,4.9 -9.5,3.5 -19,4.4 -28.8,1.5 -5.2,-1.5 -9.1,-4.7 -12.1,-9.1 -1.4,-2 -1.2,-3.5 1.3,-4.7 3.8,-1.8 7.9,-1.7 12.1,-1.5 z"
   id="path86" />
<path
   class="st4"
   d="m 596.34,326.58357 c 7.7,0.3 14.6,2.5 21.1,6.1 1.9,1.1 3.4,2.3 0.7,4.4 -9.2,7.2 -29,8.2 -38.4,1.7 -1.1,-0.8 -2.1,-1.7 -3.1,-2.5 -2.8,-2.4 -2.6,-4.3 0.9,-5.8 6.2,-2.6 12.6,-3.6 18.8,-3.9 z"
   id="path88" />
<path
   class="st4"
   d="m 574.74,301.48357 c 0.1,9.3 -3.3,17.6 -7.4,25.6 -1.6,3.1 -2.9,3.6 -5.1,0.4 -2.9,-4.3 -4.1,-9 -3.8,-14.2 0.5,-8.7 4.2,-16 9.5,-22.6 1,-1.2 2.1,-3.1 4,-2.5 1.8,0.6 1.7,2.7 2,4.3 0.4,3 0.6,6 0.8,9 z"
   id="path90" />
<path
   class="st4"
   d="m 638.64,288.48357 c 3.7,-0.2 7.7,0.2 11.5,1.5 2.4,0.8 3.6,2.1 1.1,4.2 -9.4,8 -25,13.7 -36.7,6 -1.1,-0.7 -2.2,-1.5 -3.2,-2.3 -2,-1.8 -2.3,-3.5 0.8,-4.1 8.7,-1.9 17,-5.9 26.5,-5.3 z"
   id="path92" />
<path
   class="st4"
   d="m 670.64,240.48357 c 2,0.4 4.9,-1 6,1.1 1.3,2.6 -1.7,4 -3.2,5.6 -5.1,5.6 -11,10.1 -18.7,11.8 -1,0.2 -2,0.5 -2.9,0.5 -3.8,0.1 -8.8,0.8 -10.3,-2.9 -1.2,-2.9 3.6,-5 5.9,-7.2 6.4,-6.2 14.4,-8.6 23.2,-8.9 z"
   id="path94" />
<path
   class="st4"
   d="m 657.74,203.68357 c -1.4,-0.2 -3.5,0.7 -4.4,-1 -1,-1.7 0.8,-3.1 1.7,-4.4 6,-8.9 12.3,-17.4 22.9,-21.5 1.1,-0.4 2.2,-1.3 3.3,-0.6 1.5,1 0.5,2.5 0.3,3.6 -3.2,12.3 -12.4,24.1 -23.8,23.9 z"
   id="path96" />
<path
   class="st4"
   d="m 606.34,278.78357 c -0.3,3.5 -1.2,9.2 -2.6,14.9 -0.8,3.3 -2.1,2.7 -4,0.9 -5.1,-4.6 -6.6,-10.5 -6.4,-17.1 0.2,-5.9 2,-11.4 4.6,-16.7 0.5,-1.1 1.1,-2.7 2.7,-2.6 1.6,0.1 2,1.6 2.4,2.8 2,5 3.6,10.1 3.3,17.8 z"
   id="path98" />
<path
   class="st4"
   d="m 674.24,130.18357 c -0.9,7.4 -2.7,14.1 -6.9,19.9 -2.2,3 -5.1,5.3 -8.6,6.6 -1.7,0.6 -3.6,1.8 -5.2,0.5 -1.9,-1.5 -0.1,-3.4 0.4,-5 3.1,-9.5 7.3,-18.2 15.7,-24.2 1,-0.7 1.9,-2.1 3.5,-1.5 0.9,0.3 1.2,1.6 1.1,3.7 z"
   id="path100" />
<path
   class="st4"
   d="m 631.34,250.58357 c -0.5,1.8 1.3,5.2 -1,6.1 -2.8,1 -5.2,-1.6 -7,-3.8 -7.2,-8.9 -7.1,-19 -4.5,-29.4 1,-3.9 3,-1.2 4.1,0.2 6.1,7.7 8.4,16.8 8.4,26.9 z"
   id="path102" />
<path
   class="st4"
   d="m 625.34,181.18357 c 0.7,0.4 1.5,0.7 2.2,1.1 8.4,4.9 14.1,11.8 16.2,21.5 0.8,3.6 -0.5,4.2 -3.5,3.5 -7.7,-1.8 -17.5,-15.7 -16.8,-23.8 0.1,-1.3 0.3,-2.3 1.9,-2.3 z"
   id="path104" />
<path
   class="st4"
   d="m 642.14,163.58357 c -8.4,-0.1 -20.6,-10.7 -22.1,-19.2 -0.5,-3 1.2,-2.4 2.9,-2.1 6.4,1.4 11.4,5.2 16,9.6 2.1,2 3.8,4.6 5.6,7 0.8,1 2.1,2.1 1.4,3.5 -0.7,1.6 -2.5,1 -3.8,1.2 z"
   id="path106" />
<path
   class="st4"
   d="m 640.44,106.08357 c -0.1,-8.7 2.3,-16.2 7.7,-22.5 1.3,-1.5 3.3,-3.7 3.9,0.2 1.3,8.5 1.6,17 -4.3,24.2 -1.7,2.1 -3.9,5.1 -6.8,4 -2.7,-1 0.2,-4.2 -0.5,-5.9 z"
   id="path108" />
<path
   class="st4"
   d="m 627.34,121.68357 c -8.5,-1 -14.7,-5.4 -19.6,-11.8 -1.7,-2.3 -0.5,-3.3 2.1,-3.1 8.8,0.7 16,4.8 22.2,11 1.2,1.2 1.3,2.4 -0.5,3 -1.5,0.4 -3,0.7 -4.2,0.9 z"
   id="path110" />
<path
   class="st4"
   d="m 626.34,65.58357 c -0.2,2.8 -0.7,6.3 -2.6,9.3 -1.3,2 -2.5,1.8 -3.6,-0.3 -2.2,-4.2 -1,-15.6 2,-19.2 1.5,-1.8 2.2,-0.8 2.7,0.7 0.9,2.8 1.6,5.7 1.5,9.5 z"
   id="path112" />
<path
   class="st4"
   d="m 594.54,36.18357 c 0.3,-1.2 -1,-4.4 1.2,-4.6 2.3,-0.3 2.5,3 3.2,5 1,3.1 0.9,6.2 0.3,9.4 -0.2,0.8 -0.5,1.7 -1.5,1.8 -1.1,0.1 -1.2,-0.9 -1.5,-1.7 -1.3,-3 -2.1,-6 -1.7,-9.9 z"
   id="path114" />
<path
   class="st4"
   d="m 568.34,11.58357 c 3.5,3.8 6.1,8 4.6,13.6 -0.2,0.9 -0.5,2.2 -1.6,2.3 -1.3,0.2 -1.5,-1.2 -1.7,-2 -1.2,-4.5 -2.7,-8.9 -1.3,-13.9 z"
   id="path116" />
<path
   class="st4"
   d="m 595.94,80.38357 c 5.9,-1.5 10.9,0.6 16.4,4.1 -7.1,2.7 -11.8,-0.6 -16.4,-4.1 z"
   id="path118" />
<path
   class="st4"
   d="m 530.94,7.0835701 c 5.2,0.2 8.8,2.6 12.2,5.9999999 -4.4,0.8 -8.6,-1.2 -12.2,-5.9999999 z"
   id="path120" />
<path
   class="st4"
   d="m 566.14,37.18357 c -2.1,2.6 -4.7,2.9 -8,2.1 2.2,-3.6 5.3,-2.2 8,-2.1 z"
   id="path122" />
<path
   class="st4"
   d="m 587.94,59.58357 c -3.7,0.1 -5.9,0.6 -8.3,-1.4 2.9,-0.7 5.2,-1 8.3,1.4 z"
   id="path124" />
<text
   id="text134"
   x="265.53171"
   y="183.48047"><tspan
     x="265.53171"
     y="183.48047"
     class="st1 st6 st7"
     id="tspan126">CaGIS  </tspan><tspan
     x="203.1317"
     y="238.68047"
     class="st1 st6 st7"
     id="tspan128">Digital Map  </tspan><tspan
     x="200.4317"
     y="293.88046"
     class="st1 st6 st7"
     id="tspan130">Competition</tspan><tspan
     x="259.9317"
     y="375.48047"
     class="st1 st6 st8"
     id="tspan132">2022 </tspan></text>
</svg>
