<?xml version="1.0" encoding="UTF-8" standalone="no"?>
<!-- Created with Inkscape (http://www.inkscape.org/) -->

<svg
   width="210mm"
   height="297mm"
   viewBox="0 0 210 297"
   version="1.1"
   id="svg5"
   inkscape:version="1.1 (c68e22c387, 2021-05-23)"
   sodipodi:docname="karateka_red.svg"
   xmlns:inkscape="http://www.inkscape.org/namespaces/inkscape"
   xmlns:sodipodi="http://sodipodi.sourceforge.net/DTD/sodipodi-0.dtd"
   xmlns="http://www.w3.org/2000/svg"
   xmlns:svg="http://www.w3.org/2000/svg">
  <sodipodi:namedview
     id="namedview7"
     pagecolor="#ffffff"
     bordercolor="#666666"
     borderopacity="1.0"
     inkscape:pageshadow="2"
     inkscape:pageopacity="0.0"
     inkscape:pagecheckerboard="0"
     inkscape:document-units="mm"
     showgrid="false"
     inkscape:zoom="0.63428732"
     inkscape:cx="396.50801"
     inkscape:cy="682.65593"
     inkscape:window-width="3840"
     inkscape:window-height="2103"
     inkscape:window-x="0"
     inkscape:window-y="0"
     inkscape:window-maximized="1"
     inkscape:current-layer="layer1" />
  <defs
     id="defs2">
    <filter
       style="color-interpolation-filters:sRGB;"
       inkscape:label="Drop Shadow"
       id="filter741"
       x="-0.065776313"
       y="-0.058388499"
       width="1.1863662"
       height="1.1654341">
      <feFlood
         flood-opacity="0.498039"
         flood-color="rgb(0,0,0)"
         result="flood"
         id="feFlood731" />
      <feComposite
         in="flood"
         in2="SourceGraphic"
         operator="in"
         result="composite1"
         id="feComposite733" />
      <feGaussianBlur
         in="composite1"
         stdDeviation="3"
         result="blur"
         id="feGaussianBlur735" />
      <feOffset
         dx="6"
         dy="6"
         result="offset"
         id="feOffset737" />
      <feComposite
         in="SourceGraphic"
         in2="offset"
         operator="over"
         result="composite2"
         id="feComposite739" />
    </filter>
  </defs>
  <g
     inkscape:label="Layer 1"
     inkscape:groupmode="layer"
     id="layer1">
    <path
       style="fill:#d40000;stroke-width:0.0846667"
       d="m 117.74072,213.11257 c -4.51855,-2.29483 -13.43373,0.51807 -14.93949,-5.35675 0.60462,-2.89061 2.70929,-9.726 -2.08501,-9.65004 -3.557287,-0.59307 -2.300481,-5.77597 -2.030876,-8.54827 0.411434,-4.03891 0.405651,-7.96839 0.386142,-12.05299 -0.842525,-3.3882 -2.880446,-6.64691 -3.08764,-10.30161 -2.017614,-6.31865 -2.10105,-12.97987 -3.355784,-19.45935 -1.196735,-2.82179 -3.430823,-5.25581 -4.737766,-8.1031 -3.801857,-3.25057 -6.648333,-7.78729 -8.595146,-12.11708 -5.082535,-2.97368 -9.264887,-5.95613 -10.054091,-12.00852 -2.108876,-4.71418 -5.253821,-8.50847 -8.304707,-12.61458 -0.644177,-3.215626 -7.904941,-7.397768 -7.517027,-2.0392 -5.23116,1.09477 -4.493991,-10.264526 -0.377695,-10.795274 2.951041,0.655912 5.544887,2.999228 8.18512,3.93741 3.458528,3.018526 7.886541,4.285079 11.253792,7.602364 3.741748,2.87426 6.974814,6.36395 9.655306,10.18791 2.323266,1.53486 2.356667,3.74109 3.251928,-0.553 5.174384,-2.66459 10.48536,3.17748 16.350944,1.41699 3.52933,0.8647 8.13624,-0.4873 11.11641,1.58822 2.98192,0.78352 6.15331,2.33522 9.09831,3.31576 3.83467,1.33088 8.24852,1.0859 11.46343,3.64678 2.82019,3.079 7.05799,7.8052 9.66037,1.71553 1.99923,-2.1711 5.09906,-2.11717 7.71965,-1.72575 4.57706,2.10754 8.8044,5.87048 8.35617,11.38773 -0.82563,2.14181 -1.30108,5.37388 -3.11309,4.37113 -0.85567,3.83793 -9.19779,1.72973 -5.68197,6.97927 1.44294,4.29201 -2.58257,7.69874 -5.36576,10.27155 -3.02715,1.32317 -5.33274,4.13025 -9.49516,3.50102 -2.87583,-0.48049 -5.31419,1.93887 -8.01568,1.59494 -2.26564,-1.84955 -2.65869,-5.45957 -6.21753,-3.27057 -3.26403,0.83579 -7.70416,-2.43788 -8.84898,-2.42948 -0.029,5.92323 -0.0483,12.03706 2.41368,17.55538 -2.10064,2.51567 -2.74416,-6.61473 -2.5715,-0.7316 0.0593,6.17753 1.42594,12.40046 -0.15548,18.50156 -0.50732,2.82386 -0.42292,5.65325 0.52155,8.36277 -2.00297,1.20196 -3.85624,1.07495 -2.39747,4.59829 1.63513,4.05633 4.55464,7.83539 8.61779,9.66325 3.12394,1.65548 1.00891,2.20915 -1.10274,1.55931 z m -6.50751,-81.70403 c 2.40274,-0.43329 3.86922,-2.05549 6.35974,-2.25033 -3.21299,-2.12068 -5.95811,-0.0973 -9.3188,-0.71299 -1.57573,-2.23455 0.0714,-5.87666 -0.87451,-7.69377 -5.11572,0.0108 -9.364471,-4.03587 -14.59547,-3.68046 -2.345701,0.0552 -7.390057,-0.48667 -3.087034,1.85974 2.612747,4.21476 8.26238,5.15989 11.211544,9.53559 2.41355,-0.0506 5.60746,-0.47514 6.58263,2.4749 1.20429,0.49864 2.43923,0.57589 3.7219,0.46732 z"
       id="path139" />
  </g>
</svg>
