<?xml version="1.0" encoding="UTF-8" standalone="no"?>
<!-- Created with Inkscape (http://www.inkscape.org/) -->

<svg
   width="210mm"
   height="297mm"
   viewBox="0 0 210 297"
   version="1.1"
   id="svg5"
   inkscape:version="1.1 (c68e22c387, 2021-05-23)"
   sodipodi:docname="karateka_green.svg"
   xmlns:inkscape="http://www.inkscape.org/namespaces/inkscape"
   xmlns:sodipodi="http://sodipodi.sourceforge.net/DTD/sodipodi-0.dtd"
   xmlns="http://www.w3.org/2000/svg"
   xmlns:svg="http://www.w3.org/2000/svg">
  <sodipodi:namedview
     id="namedview7"
     pagecolor="#ffffff"
     bordercolor="#666666"
     borderopacity="1.0"
     inkscape:pageshadow="2"
     inkscape:pageopacity="0.0"
     inkscape:pagecheckerboard="0"
     inkscape:document-units="mm"
     showgrid="false"
     inkscape:zoom="0.63428732"
     inkscape:cx="396.50801"
     inkscape:cy="677.92621"
     inkscape:window-width="3840"
     inkscape:window-height="2103"
     inkscape:window-x="0"
     inkscape:window-y="0"
     inkscape:window-maximized="1"
     inkscape:current-layer="layer1" />
  <defs
     id="defs2">
    <filter
       style="color-interpolation-filters:sRGB;"
       inkscape:label="Drop Shadow"
       id="filter741"
       x="-0.065776313"
       y="-0.058388499"
       width="1.1863662"
       height="1.1654341">
      <feFlood
         flood-opacity="0.498039"
         flood-color="rgb(0,0,0)"
         result="flood"
         id="feFlood731" />
      <feComposite
         in="flood"
         in2="SourceGraphic"
         operator="in"
         result="composite1"
         id="feComposite733" />
      <feGaussianBlur
         in="composite1"
         stdDeviation="3"
         result="blur"
         id="feGaussianBlur735" />
      <feOffset
         dx="6"
         dy="6"
         result="offset"
         id="feOffset737" />
      <feComposite
         in="SourceGraphic"
         in2="offset"
         operator="over"
         result="composite2"
         id="feComposite739" />
    </filter>
  </defs>
  <g
     inkscape:label="Layer 1"
     inkscape:groupmode="layer"
     id="layer1">
    <path
       style="fill:#5aa02c;stroke-width:0.0846667"
       d="m 117.74072,213.11257 c -4.51855,-2.29483 -13.43373,0.51807 -14.93949,-5.35675 0.60462,-2.89061 2.70929,-9.726 -2.08501,-9.65004 -3.557287,-0.59307 -2.300481,-5.77597 -2.030876,-8.54827 0.411434,-4.03891 0.405651,-7.96839 0.386142,-12.05299 -0.842525,-3.3882 -2.880446,-6.64691 -3.08764,-10.30161 -2.017614,-6.31865 -2.10105,-12.97987 -3.355784,-19.45935 -1.196735,-2.82179 -3.430823,-5.25581 -4.737766,-8.1031 -3.801857,-3.25057 -6.648333,-7.78729 -8.595146,-12.11708 -5.082535,-2.97368 -9.264887,-5.95613 -10.054091,-12.00852 -2.108876,-4.71418 -5.253821,-8.50847 -8.304707,-12.61458 -0.644177,-3.215626 -7.904941,-7.397768 -7.517027,-2.0392 -5.23116,1.09477 -4.493991,-10.264526 -0.377695,-10.795274 2.951041,0.655912 5.544887,2.999228 8.18512,3.93741 3.458528,3.018526 7.886541,4.285079 11.253792,7.602364 3.741748,2.87426 6.974814,6.36395 9.655306,10.18791 2.323266,1.53486 2.356667,3.74109 3.251928,-0.553 5.174384,-2.66459 10.48536,3.17748 16.350944,1.41699 3.52933,0.8647 8.13624,-0.4873 11.11641,1.58822 2.98192,0.78352 6.15331,2.33522 9.09831,3.31576 3.83467,1.33088 8.24852,1.0859 11.46343,3.64678 2.82019,3.079 7.05799,7.8052 9.66037,1.71553 1.99923,-2.1711 5.09906,-2.11717 7.71965,-1.72575 4.57706,2.10754 8.8044,5.87048 8.35617,11.38773 -0.82563,2.14181 -1.30108,5.37388 -3.11309,4.37113 -0.85567,3.83793 -9.19779,1.72973 -5.68197,6.97927 1.44294,4.29201 -2.58257,7.69874 -5.36576,10.27155 -3.02715,1.32317 -5.33274,4.13025 -9.49516,3.50102 -2.87583,-0.48049 -5.31419,1.93887 -8.01568,1.59494 -2.26564,-1.84955 -2.65869,-5.45957 -6.21753,-3.27057 -3.26403,0.83579 -7.70416,-2.43788 -8.84898,-2.42948 -0.029,5.92323 -0.0483,12.03706 2.41368,17.55538 -2.10064,2.51567 -2.74416,-6.61473 -2.5715,-0.7316 0.0593,6.17753 1.42594,12.40046 -0.15548,18.50156 -0.50732,2.82386 -0.42292,5.65325 0.52155,8.36277 -2.00297,1.20196 -3.85624,1.07495 -2.39747,4.59829 1.63513,4.05633 4.55464,7.83539 8.61779,9.66325 3.12394,1.65548 1.00891,2.20915 -1.10274,1.55931 z m -6.50751,-81.70403 c 2.40274,-0.43329 3.86922,-2.05549 6.35974,-2.25033 -3.21299,-2.12068 -5.95811,-0.0973 -9.3188,-0.71299 -1.57573,-2.23455 0.0714,-5.87666 -0.87451,-7.69377 -5.11572,0.0108 -9.364471,-4.03587 -14.59547,-3.68046 -2.345701,0.0552 -7.390057,-0.48667 -3.087034,1.85974 2.612747,4.21476 8.26238,5.15989 11.211544,9.53559 2.41355,-0.0506 5.60746,-0.47514 6.58263,2.4749 1.20429,0.49864 2.43923,0.57589 3.7219,0.46732 z"
       id="path139" />
    <path
       style="fill:#00ff00;stroke-width:1.57657"
       d="m 441.44032,804.61165 c -2.16778,-0.88295 -11.036,-2.27401 -19.70715,-3.09124 -18.76071,-1.76815 -24.36253,-3.39069 -29.09387,-8.42699 -4.07979,-4.34273 -4.37073,-7.38607 -1.99578,-20.87669 2.4953,-14.17433 0.46176,-20.40279 -7.34795,-22.50573 -3.29669,-0.88771 -7.27617,-3.0308 -8.84328,-4.76243 -3.26262,-3.60517 -3.31938,-5.28657 -1.57326,-46.60254 l 1.20255,-28.45394 -5.59657,-16.47838 c -6.74642,-19.86395 -11.08539,-40.13522 -15.29942,-71.47755 -2.3843,-17.73346 -4.06628,-25.05282 -6.88355,-29.95487 -9.36518,-16.2954 -15.20341,-24.90008 -21.17308,-31.20596 -9.2638,-9.78553 -12.28738,-13.92757 -19.84023,-27.17928 -5.50735,-9.66283 -8.48064,-12.97044 -16.43316,-18.28093 -13.99435,-9.34507 -21.79551,-18.8791 -25.64461,-31.34102 -3.92405,-12.7046 -9.42266,-22.61875 -23.56423,-42.48698 -15.3939,-21.6277 -18.95216,-25.64614 -24.91548,-28.13778 -6.93596,-2.89803 -11.25467,-1.37765 -12.40352,4.36659 -0.99367,4.96835 -2.21858,5.49577 -6.92006,2.97961 -7.73959,-4.1421 -10.05497,-19.26128 -4.74179,-30.96337 5.00352,-11.02009 7.82246,-11.44117 23.47204,-3.50609 7.40475,3.75455 15.99435,8.55385 19.088,10.6651 3.09366,2.11125 11.46193,7.29529 18.59617,11.5201 17.09119,10.1212 36.97426,26.85138 47.7267,40.15862 16.145,19.98106 21.96162,23.8064 22.04788,14.49992 0.0239,-2.58269 7.29889,-6.06637 12.6684,-6.06637 1.49287,0 9.89803,2.06746 18.67812,4.59435 14.00359,4.0302 18.62632,4.6097 37.64717,4.71936 24.23591,0.13973 22.88981,-0.14109 52.96669,11.04948 12.00314,4.46595 26.90175,9.17641 33.10802,10.46769 18.189,3.78442 21.20985,5.23431 32.96566,15.82224 7.37513,6.64244 13.01339,10.4062 16.59571,11.07825 5.0511,0.94759 5.98503,0.41836 13.52909,-7.66666 6.91097,-7.40653 9.18103,-8.83971 15.42615,-9.73916 8.59019,-1.2372 14.24966,-0.13197 21.84389,4.26587 13.19075,7.6388 22.59857,19.96122 24.5241,32.12182 1.16448,7.35415 -3.35707,20.66309 -7.89309,23.23293 -1.69188,0.95851 -4.17499,2.98865 -5.51801,4.51141 -1.34301,1.52275 -6.6986,4.39878 -11.90129,6.39116 -8.14502,3.11915 -9.53133,4.23986 -9.97684,8.06529 -0.28457,2.44351 0.24753,5.20767 1.18243,6.14258 0.93491,0.9349 1.69983,5.00621 1.69983,9.04736 0,12.5601 -10.77477,25.70963 -30.58128,37.32139 -11.30682,6.62873 -13.75187,7.42352 -26.02765,8.46061 -7.4517,0.62954 -16.64125,2.29394 -20.4212,3.69869 -8.66184,3.21896 -11.40266,2.32169 -16.82981,-5.5097 -4.76049,-6.86939 -9.71324,-9.01703 -14.67308,-6.36261 -5.871,3.14207 -12.05673,2.01036 -29.24758,-5.35099 l -6.13679,-2.62785 0.91327,21.79288 c 0.54711,13.05521 1.95363,25.26953 3.50802,30.46405 4.44467,14.85322 4.54004,15.76573 1.64779,15.76573 -1.5153,0 -3.34163,-2.03947 -4.30752,-4.8102 -0.92226,-2.6456 -1.99709,-4.48994 -2.38852,-4.09851 -0.39143,0.39142 0.11572,12.22028 1.12708,26.28635 1.61371,22.44464 1.50556,27.82638 -0.88366,43.97285 -2.23698,15.11771 -2.39415,19.92878 -0.88143,26.98233 1.18975,5.5476 1.28885,8.76819 0.28016,9.10443 -3.79516,1.26505 -9.60191,7.09019 -9.60191,9.6323 0,4.69357 9.15174,21.41591 15.94249,29.13062 3.53482,4.01575 10.38517,9.61427 15.22302,12.44114 4.83784,2.82688 9.08678,6.0119 9.44211,7.07785 0.79442,2.38326 -8.07132,2.46858 -13.80589,0.13291 z m -8.64947,-312.93372 c 7.57573,-3.46829 8.62061,-4.40781 6.32862,-5.69047 -1.62089,-0.9071 -8.0459,-1.09477 -15.6875,-0.45823 -10.06448,0.83837 -13.34137,0.59718 -14.73718,-1.08467 -0.98721,-1.18952 -2.00473,-7.75323 -2.26114,-14.58604 l -0.46621,-12.42328 -7.88286,-1.79368 c -4.33558,-0.98653 -13.8839,-4.1192 -21.21849,-6.96149 -13.61331,-5.2754 -31.80037,-7.92925 -40.0869,-5.84946 l -4.10737,1.03088 7.90827,7.86676 c 4.34955,4.32671 13.92342,11.82826 21.27526,16.6701 7.35184,4.84184 14.6319,10.41142 16.1779,12.37685 2.17113,2.76013 4.88735,3.74569 11.93365,4.33002 7.6002,0.63027 9.95472,1.58852 14.10788,5.74169 6.52234,6.52234 15.70418,6.78806 28.71607,0.83102 z"
       id="path479"
       transform="scale(0.26458333)" />
  </g>
</svg>
